<?xml version="1.0" encoding="UTF-8"?>
<svg version="1.1" xmlns="http://www.w3.org/2000/svg" width="512" height="512">
<path d="M0 0 C1.09307447 -0.00843994 2.18614894 -0.01687988 3.31234688 -0.02557558 C4.50766582 -0.01956553 5.70298476 -0.01355549 6.93452549 -0.00736332 C8.20863256 -0.01274886 9.48273962 -0.01813439 10.79545599 -0.02368313 C14.32993991 -0.03815363 17.86419097 -0.03388811 21.39868772 -0.02651632 C25.21131518 -0.02179089 29.0238918 -0.03428894 32.83650303 -0.04453373 C40.30488203 -0.06173931 47.77317696 -0.06255811 55.24157064 -0.05732083 C61.31120322 -0.0532812 67.38081093 -0.05472021 73.45044231 -0.06006908 C74.74569669 -0.06119172 74.74569669 -0.06119172 76.06711783 -0.06233703 C77.82125978 -0.06386849 79.57540172 -0.06540684 81.32954366 -0.066952 C97.78352618 -0.08068337 114.23746117 -0.07523485 130.69144262 -0.06376678 C145.74765874 -0.05383346 160.80375199 -0.06677565 175.85994916 -0.09070098 C191.31645885 -0.11507755 206.77291127 -0.12470342 222.2294398 -0.11804825 C230.90840259 -0.11455285 239.58727086 -0.11680921 248.26621914 -0.13429928 C255.65434542 -0.14900324 263.04231062 -0.14968042 270.43043368 -0.13222837 C274.20033371 -0.12370105 277.96994577 -0.12161071 281.73983097 -0.13687992 C285.82555305 -0.15322359 289.91057696 -0.13861432 293.99629307 -0.12088871 C295.7859254 -0.13529622 295.7859254 -0.13529622 297.61171192 -0.14999479 C303.69213055 -0.09553101 307.89750045 -0.01406854 312.5289011 4.38031673 C315.80187048 8.65236317 315.9542269 12.49858529 315.90921783 17.69377708 C315.91387775 18.53180533 315.91853767 19.36983357 315.9233388 20.23325661 C315.93533275 23.05411717 315.92587642 25.87449998 315.91658115 28.69536495 C315.92075214 30.73305845 315.92622836 32.77074962 315.93290097 34.80843645 C315.94740509 40.4179795 315.94309535 46.02737625 315.93573415 51.63692749 C315.93101706 57.68269647 315.94349936 63.72843313 315.95375156 69.77419186 C315.9699774 80.93687393 315.97237894 92.09951048 315.96744657 103.26219812 C315.96289213 113.5744658 315.96348516 123.88671607 315.96928692 134.19898319 C315.97004378 135.58142629 315.97079976 136.96386938 315.97155486 138.34631248 C315.97270004 140.42944367 315.97384991 142.51257486 315.97501411 144.59570604 C315.98572162 163.96677409 315.99044176 183.33783634 315.98254395 202.70890617 C315.98224677 203.43935775 315.9819496 204.16980933 315.98164342 204.9223958 C315.9791944 210.85445228 315.97658286 216.78650869 315.97395929 222.71856509 C315.96385596 245.85999358 315.97221286 269.00134953 315.99545383 292.14276791 C316.0215147 318.13414118 316.03437753 344.12547076 316.02726609 370.11685759 C316.02655001 372.88718322 316.02587562 375.65750886 316.02522564 378.42783451 C316.02505583 379.10997381 316.02488602 379.79211311 316.02471107 380.49492329 C316.02240624 390.80062433 316.03039379 401.10628486 316.04351711 411.41197681 C316.05841165 423.12959331 316.05891862 434.84713106 316.0414462 446.56475132 C316.03290618 452.54620506 316.03085974 458.52747713 316.04609776 464.50892162 C316.05986551 469.98085615 316.05528408 475.45245201 316.03585852 480.92436654 C316.03207379 482.90748601 316.03509097 484.89063211 316.04547017 486.87372803 C316.05854938 489.56323596 316.04713814 492.25155923 316.02947235 494.94101524 C316.03912286 495.71637057 316.04877338 496.4917259 316.05871633 497.29057685 C315.98865012 502.46276587 314.79332237 505.39506407 311.5289011 509.38031673 C307.07027863 512.77626469 303.34040782 513.09704502 297.86093235 512.94232845 C291.48868546 511.86752538 286.40333602 508.3551881 281.0289011 504.94281673 C279.75870145 504.16411295 278.48693648 503.38795743 277.21371555 502.61420345 C274.58925902 501.01367118 271.97454616 499.39883574 269.36728001 497.77045345 C265.77603084 495.52878559 262.16362774 493.32410625 258.54061985 491.13422298 C255.11202996 489.0607401 251.68357157 486.98722669 248.2632761 484.90009212 C239.39360576 479.48888762 230.47047161 474.17170867 221.5289011 468.88031673 C211.93228803 463.20001834 202.35824738 457.48639244 192.83194065 451.68884945 C191.11009089 450.64168318 189.38682949 449.59687818 187.66317844 448.55268002 C182.49256209 445.41633123 177.33239399 442.26629218 172.20741367 439.05597591 C170.46896317 437.96932247 168.72625194 436.88989257 166.98178196 435.81293392 C164.81909744 434.47575359 162.66441572 433.1255111 160.51937962 431.76019955 C159.55572483 431.16819759 158.59207005 430.57619564 157.5992136 429.96625423 C156.76148411 429.44080013 155.92375462 428.91534603 155.06063938 428.37396908 C151.73454785 427.06855032 149.94734616 427.41258301 146.5289011 428.38031673 C143.71931753 429.73185528 143.71931753 429.73185528 140.9429636 431.52875423 C139.86401829 432.19455502 138.78507298 432.8603558 137.67343235 433.54633236 C136.81612522 434.08447567 136.81612522 434.08447567 135.94149876 434.63349056 C133.47664468 436.1803363 130.99863747 437.70551589 128.52102757 439.2318182 C127.2071368 440.04124126 125.89387399 440.85168443 124.58120823 441.66309261 C117.95116228 445.75556681 111.25256874 449.72889814 104.54373264 453.69043636 C93.82941343 460.01789246 83.15313801 466.40277679 72.5289011 472.88031673 C61.04924452 479.87727609 49.52011633 486.78775427 37.93222141 493.60419369 C32.05537249 497.06553992 26.21167604 500.5447616 20.4820261 504.24750423 C5.2248066 514.0481968 5.2248066 514.0481968 -3.11563015 513.04828548 C-7.61289162 511.77294268 -10.27734761 509.93790632 -13.09967285 506.25537676 C-14.88908638 502.50404704 -14.88666672 499.13572965 -14.85141563 495.06685638 C-14.85840551 493.80981402 -14.85840551 493.80981402 -14.8655366 492.52737686 C-14.87753055 489.7065163 -14.86807422 486.88613349 -14.85877895 484.06526852 C-14.86294994 482.02757502 -14.86842616 479.98988385 -14.87509876 477.95219702 C-14.88960289 472.34265396 -14.88529315 466.73325721 -14.87793195 461.12370598 C-14.87321486 455.077937 -14.88569716 449.03220034 -14.89594936 442.98644161 C-14.9121752 431.82375954 -14.91457674 420.66112299 -14.90964437 409.49843535 C-14.90508993 399.18616766 -14.90568296 388.8739174 -14.91148472 378.56165028 C-14.91224158 377.17920718 -14.91299756 375.79676408 -14.91375266 374.41432099 C-14.91489784 372.3311898 -14.91604771 370.24805861 -14.91721191 368.16492743 C-14.92791942 348.79385937 -14.93263956 329.42279713 -14.92474174 310.05172729 C-14.92444457 309.32127572 -14.9241474 308.59082414 -14.92384122 307.83823767 C-14.9213922 301.90618119 -14.91878066 295.97412478 -14.91615709 290.04206838 C-14.90605376 266.90063988 -14.91441066 243.75928394 -14.93765163 220.61786556 C-14.9637125 194.62649229 -14.97657533 168.63516271 -14.96946388 142.64377588 C-14.96874781 139.87345025 -14.96807342 137.10312461 -14.96742344 134.33279896 C-14.96725363 133.65065966 -14.96708382 132.96852036 -14.96690887 132.26571018 C-14.96460404 121.96000914 -14.97259159 111.65434861 -14.98571491 101.34865665 C-15.00060945 89.63104015 -15.00111642 77.91350241 -14.983644 66.19588215 C-14.97510398 60.21442841 -14.97305754 54.23315634 -14.98829556 48.25171185 C-15.00206331 42.77977732 -14.99748188 37.30818146 -14.97805632 31.83626693 C-14.97427159 29.85314745 -14.97728877 27.87000136 -14.98766797 25.88690544 C-15.00074718 23.1973975 -14.98933594 20.50907423 -14.97167015 17.81961823 C-14.98132066 17.0442629 -14.99097117 16.26890757 -15.00091413 15.47005662 C-14.93072862 10.2890611 -13.83994631 7.30861106 -10.4710989 3.38031673 C-6.9426034 0.66773174 -4.40959501 0.00481423 0 0 Z " fill="#FEA200" transform="translate(105.47109889984131,-0.38031673431396484)"/>
<path d="M0 0 C0.91265625 -0.02835938 1.8253125 -0.05671875 2.765625 -0.0859375 C6.66987606 0.5170751 9.68484718 1.93907954 12.75 4.375 C14.796875 7.23828125 14.796875 7.23828125 16.5 10.6875 C16.8194458 11.32196045 17.1388916 11.9564209 17.46801758 12.61010742 C18.58680227 14.85374139 19.66968448 17.11259684 20.75 19.375 C21.19456543 20.29539063 21.63913086 21.21578125 22.09716797 22.1640625 C24.90496311 27.97712831 27.6777386 33.80592679 30.43505859 39.64306641 C32.17433783 43.25660792 33.99966933 46.82407071 35.84301758 50.38549805 C36.75 52.375 36.75 52.375 36.75 54.375 C37.75804687 54.34921875 38.76609375 54.3234375 39.8046875 54.296875 C43.67247822 54.37346492 47.0835276 54.88095322 50.875 55.625 C56.59685503 56.71575964 62.3208864 57.60694169 68.09765625 58.359375 C69.38849121 58.52791992 70.67932617 58.69646484 72.00927734 58.87011719 C74.59571912 59.20254488 77.18328727 59.52634102 79.77197266 59.84082031 C81.57674072 60.07430176 81.57674072 60.07430176 83.41796875 60.3125 C84.49328857 60.44527344 85.5686084 60.57804687 86.67651367 60.71484375 C91.89877777 61.83653746 96.51527286 64.04779221 99.8203125 68.37890625 C101.88681228 72.81580285 102.00377067 77.71325269 100.75 82.375 C96.42745687 88.1681082 91.03294846 93.12638644 85.8125 98.09375 C84.32563637 99.53393226 82.83999346 100.97537569 81.35546875 102.41796875 C79.04417478 104.66118191 76.72726722 106.89653855 74.38916016 109.11181641 C72.11336709 111.27260802 69.86749214 113.46098545 67.625 115.65625 C66.91996338 116.311698 66.21492676 116.967146 65.48852539 117.64245605 C61.41331417 121.6875379 61.41331417 121.6875379 60.734375 127.31152344 C61.04949532 128.67165532 61.38876332 130.02638308 61.75 131.375 C61.9807396 132.78642853 62.1965873 134.20036216 62.3984375 135.61621094 C62.63906243 137.11418413 62.88130909 138.61189753 63.125 140.109375 C63.31908447 141.31004608 63.31908447 141.31004608 63.51708984 142.53497314 C63.78866845 144.21239693 64.06097575 145.88970289 64.33398438 147.56689453 C64.75105071 150.13146085 65.16472149 152.69655974 65.578125 155.26171875 C65.84354637 156.89847053 66.10916445 158.53519043 66.375 160.171875 C66.49794434 160.93546326 66.62088867 161.69905151 66.74755859 162.48577881 C67.40043347 166.50186811 67.40043347 166.50186811 68.27563477 170.47344971 C69.5588943 175.61755041 69.44891587 180.07357046 66.9375 184.75 C61.8123926 190.90012888 61.8123926 190.90012888 56.54736328 191.71655273 C47.63494897 192.2458789 41.17320937 188.62878698 33.625 184.4375 C32.34038488 183.74835315 31.0544833 183.06159921 29.76733398 182.37719727 C24.23606218 179.42404394 18.75406381 176.38573255 13.29296875 173.3046875 C12.51904785 172.87534912 11.74512695 172.44601074 10.94775391 172.00366211 C9.57029434 171.23523938 8.20299267 170.44817499 6.84912109 169.63891602 C3.88258278 167.97438059 2.33994355 167.22493942 -1.01904297 168.0793457 C-4.53089232 169.48764134 -7.88256915 171.10602125 -11.23046875 172.859375 C-11.88396805 173.19745178 -12.53746735 173.53552856 -13.21076965 173.8838501 C-14.5892362 174.59795126 -15.96663623 175.31411455 -17.34301758 176.03222656 C-19.41202913 177.11171085 -21.48398297 178.18534844 -23.55664062 179.2578125 C-24.9064158 179.95801381 -26.25602693 180.65853144 -27.60546875 181.359375 C-28.26483429 181.7014801 -28.92419983 182.04358521 -29.60354614 182.39605713 C-33.56817281 184.46399253 -37.463203 186.62764075 -41.34765625 188.84375 C-47.07986593 191.98237148 -51.80893404 192.76964676 -58.25 191.375 C-62.65509937 188.98059059 -65.24027406 185.92462177 -67.25 181.375 C-67.99217303 172.45940856 -65.93997295 163.680857 -64.375 154.9375 C-64.10219638 153.3770698 -63.8300562 151.81652346 -63.55859375 150.25585938 C-62.33749927 143.28067394 -61.11714639 136.32614589 -59.47998047 129.43334961 C-59.07995431 125.85307306 -59.59887186 123.224581 -61.80615234 120.34455872 C-62.47598145 119.68662827 -63.14581055 119.02869781 -63.8359375 118.35083008 C-64.59342285 117.59687454 -65.3509082 116.84291901 -66.13134766 116.06611633 C-66.95425293 115.26699326 -67.7771582 114.46787018 -68.625 113.64453125 C-69.46466309 112.81289963 -70.30432617 111.98126801 -71.16943359 111.12443542 C-73.85368348 108.46919612 -76.55120598 105.82794821 -79.25 103.1875 C-81.94615891 100.53379839 -84.63951119 97.87730627 -87.33056641 95.21842957 C-89.00638434 93.56436936 -90.6856667 91.91381067 -92.36865234 90.26704407 C-93.50488037 89.15029549 -93.50488037 89.15029549 -94.6640625 88.01098633 C-95.3338916 87.35544266 -96.0037207 86.69989899 -96.69384766 86.02449036 C-100.15573258 82.35496158 -99.70070687 78.25911706 -99.66015625 73.43359375 C-99.12955461 69.47682152 -97.83399692 67.53575863 -95.1484375 64.6796875 C-90.72825183 61.64194673 -85.39432473 60.95473308 -80.19140625 60.15625 C-79.19209328 60.00113953 -79.19209328 60.00113953 -78.17259216 59.84289551 C-76.76525636 59.62541448 -75.35753601 59.41040893 -73.94946289 59.19775391 C-71.84894081 58.8805038 -69.74960636 58.55623895 -67.65039062 58.23046875 C-60.78401033 57.17138384 -53.9103731 56.16374592 -47.02734375 55.21875 C-45.84261475 55.05568359 -44.65788574 54.89261719 -43.43725586 54.72460938 C-40.67048492 54.4211229 -38.02892232 54.3044242 -35.25 54.375 C-35.03601563 53.61832031 -34.82203125 52.86164063 -34.6015625 52.08203125 C-32.69666066 46.85731494 -30.15012658 42.01143755 -27.625 37.0625 C-23.11502981 28.18968863 -23.11502981 28.18968863 -18.85546875 19.1953125 C-18.50500488 18.42614502 -18.15454102 17.65697754 -17.79345703 16.86450195 C-17.16108275 15.4610969 -16.53764672 14.05361301 -15.92529297 12.64135742 C-12.7216583 5.54291164 -8.09511652 0.11306029 0 0 Z " fill="#FEF0B4" transform="translate(255.25,182.625)"/>
</svg>
